<?xml version="1.0" encoding="UTF-8" standalone="no"?>
<!-- Created with Inkscape (http://www.inkscape.org/) -->

<svg
   version="1.1"
   id="svg2"
   width="1056"
   height="816"
   viewBox="0 0 1056 816"
   sodipodi:docname="colnago-seeklogo.ai"
   xmlns:inkscape="http://www.inkscape.org/namespaces/inkscape"
   xmlns:sodipodi="http://sodipodi.sourceforge.net/DTD/sodipodi-0.dtd"
   xmlns="http://www.w3.org/2000/svg"
   xmlns:svg="http://www.w3.org/2000/svg">
  <defs
     id="defs6">
    <clipPath
       clipPathUnits="userSpaceOnUse"
       id="clipPath16">
      <path
         d="M 0,612 H 792 V 0 H 0 Z"
         id="path14" />
    </clipPath>
  </defs>
  <sodipodi:namedview
     id="namedview4"
     pagecolor="#ffffff"
     bordercolor="#000000"
     borderopacity="0.25"
     inkscape:showpageshadow="2"
     inkscape:pageopacity="0.0"
     inkscape:pagecheckerboard="0"
     inkscape:deskcolor="#d1d1d1" />
  <g
     id="g8"
     inkscape:groupmode="layer"
     inkscape:label="colnago-seeklogo"
     transform="matrix(1.3333333,0,0,-1.3333333,0,816)">
    <g
       id="g10">
      <g
         id="g12"
         clip-path="url(#clipPath16)">
        <g
           id="g18"
           transform="translate(705.0942,278.3772)">
          <path
             d="m 0,0 c 2.18,0.706 4.111,1.944 5.79,3.712 1.68,1.767 2.992,4.095 3.935,6.984 1,2.886 1.442,6.482 1.325,10.785 0,4.42 -0.502,8.073 -1.502,10.962 -1.003,2.945 -2.313,5.272 -3.935,6.983 -1.621,1.709 -3.49,2.917 -5.613,3.625 -2.121,0.706 -4.331,1.06 -6.629,1.06 -2.24,0 -4.421,-0.354 -6.542,-1.06 -2.122,-0.708 -4.008,-1.916 -5.658,-3.625 -1.651,-1.711 -2.976,-4.038 -3.979,-6.983 -0.943,-2.889 -1.414,-6.542 -1.414,-10.962 0,-4.421 0.471,-8.076 1.414,-10.962 1.003,-2.889 2.328,-5.202 3.979,-6.941 1.65,-1.737 3.536,-2.959 5.658,-3.667 2.121,-0.709 4.302,-1.061 6.542,-1.061 2.298,0 4.508,0.382 6.629,1.15 m 9.635,57.99 c 5.069,-1.651 9.488,-4.096 13.26,-7.337 3.772,-3.241 6.749,-7.308 8.929,-12.2 2.123,-4.832 3.183,-10.49 3.183,-16.972 0,-6.426 -1.06,-12.082 -3.183,-16.975 -2.18,-4.83 -5.157,-8.882 -8.929,-12.155 -3.772,-3.268 -8.191,-5.701 -13.26,-7.292 -5.069,-1.649 -10.49,-2.475 -16.264,-2.475 -5.778,0 -11.169,0.826 -16.179,2.475 -5.069,1.591 -9.488,4.024 -13.26,7.292 -3.772,3.273 -6.748,7.325 -8.927,12.155 -2.182,4.893 -3.271,10.549 -3.271,16.975 0,6.482 1.089,12.14 3.271,16.972 2.179,4.892 5.155,8.959 8.927,12.2 3.772,3.241 8.191,5.686 13.26,7.337 5.01,1.648 10.401,2.475 16.179,2.475 5.774,0 11.195,-0.827 16.264,-2.475 M -129.241,21.922 c 0,6.365 1.119,11.934 3.359,16.708 2.238,4.831 5.289,8.853 9.148,12.066 3.86,3.213 8.413,5.643 13.659,7.294 5.185,1.648 10.786,2.475 16.796,2.475 2.71,0 5.362,-0.177 7.956,-0.529 2.533,-0.354 4.935,-0.827 7.205,-1.416 2.268,-0.589 4.346,-1.298 6.232,-2.121 1.886,-0.826 3.506,-1.739 4.862,-2.74 V 36.862 h -2.21 c -3.418,2.711 -7.205,4.67 -11.359,5.88 -4.154,1.207 -7.47,1.811 -9.945,1.811 -2.829,0 -5.57,-0.354 -8.222,-1.062 -2.652,-0.705 -5.025,-1.916 -7.116,-3.623 -2.093,-1.711 -3.757,-4.009 -4.994,-6.896 -1.238,-2.948 -1.857,-6.631 -1.857,-11.05 0,-4.303 0.559,-7.866 1.68,-10.695 1.118,-2.829 2.652,-5.099 4.597,-6.808 1.944,-1.709 4.242,-2.917 6.894,-3.625 2.652,-0.706 5.511,-1.061 8.575,-1.061 1.12,0 2.225,0.045 3.315,0.133 1.09,0.089 2.106,0.369 3.051,0.84 V 19.27 h 20.775 v -29.438 c -3.597,-2.061 -7.647,-3.713 -12.157,-4.95 -4.508,-1.238 -9.798,-1.856 -15.868,-1.856 -6.247,0 -12.082,0.827 -17.503,2.475 -5.364,1.651 -10.049,4.096 -14.056,7.339 -4.007,3.239 -7.131,7.276 -9.371,12.11 -2.298,4.89 -3.446,10.548 -3.446,16.972 M -183.608,9.281 h 19.537 l -9.548,21.746 z m 20.42,50.211 32.533,-75.139 h -23.074 l -4.95,11.314 h -30.764 l -4.95,-11.314 h -19.979 l 31.295,68.863 -2.741,6.276 z m -59.759,0 v -75.139 h -14.939 l -31.647,43.051 v -43.051 h -18.564 v 66.123 l -6.365,9.016 h 26.696 l 26.697,-36.155 v 36.155 z m -130.39,-0.441 h 22.189 V 0.265 h 32.176 v -15.912 h -54.365 V 59.492 Z M -399.659,0 c 2.121,0.706 3.992,1.944 5.613,3.712 1.62,1.767 2.93,4.095 3.935,6.984 1,2.886 1.502,6.482 1.502,10.785 0,4.42 -0.502,8.073 -1.502,10.962 -1.005,2.945 -2.315,5.272 -3.935,6.983 -1.621,1.709 -3.492,2.917 -5.613,3.625 -2.123,0.706 -4.333,1.06 -6.631,1.06 -2.24,0 -4.419,-0.354 -6.541,-1.06 -2.121,-0.708 -4.009,-1.916 -5.659,-3.625 -1.649,-1.711 -2.946,-4.038 -3.889,-6.983 -1.003,-2.889 -1.502,-6.542 -1.502,-10.962 0,-4.421 0.499,-8.076 1.502,-10.962 0.943,-2.889 2.24,-5.202 3.889,-6.941 1.65,-1.737 3.538,-2.959 5.659,-3.667 2.122,-0.709 4.301,-1.061 6.541,-1.061 2.298,0 4.508,0.382 6.631,1.15 m 9.548,57.99 c 5.067,-1.651 9.458,-4.096 13.17,-7.337 3.713,-3.241 6.659,-7.308 8.84,-12.2 2.24,-4.832 3.388,-10.49 3.448,-16.972 0,-6.426 -1.061,-12.082 -3.182,-16.975 -2.182,-4.83 -5.158,-8.882 -8.929,-12.155 -3.772,-3.268 -8.192,-5.701 -13.26,-7.292 -5.069,-1.649 -10.49,-2.475 -16.266,-2.475 -5.776,0 -11.169,0.826 -16.177,2.475 -5.069,1.591 -9.49,4.024 -13.26,7.292 -3.772,3.273 -6.748,7.325 -8.929,12.155 -2.18,4.893 -3.27,10.549 -3.27,16.975 0,6.482 1.09,12.14 3.27,16.972 2.181,4.892 5.157,8.959 8.929,12.2 3.77,3.241 8.191,5.686 13.26,7.337 5.008,1.648 10.401,2.475 16.177,2.475 5.776,0 11.167,-0.827 16.179,-2.475 M -501.763,21.922 c 0,-4.418 0.619,-8.075 1.857,-10.962 1.296,-2.887 2.991,-5.216 5.083,-6.983 2.092,-1.767 4.493,-3.036 7.205,-3.802 2.71,-0.766 5.539,-1.207 8.486,-1.325 2.475,0 5.716,0.574 9.725,1.724 4.007,1.148 7.719,3.284 11.137,6.407 h 2.21 v -17.589 c -1.356,-1.062 -2.976,-2.004 -4.862,-2.829 -1.886,-0.826 -3.964,-1.532 -6.232,-2.123 -2.268,-0.587 -4.67,-1.06 -7.204,-1.414 -2.594,-0.295 -5.246,-0.442 -7.956,-0.442 -6.071,0 -11.757,0.826 -17.061,2.475 -5.304,1.591 -9.901,4.024 -13.792,7.292 -3.889,3.273 -6.954,7.325 -9.193,12.155 -2.24,4.893 -3.359,10.549 -3.359,16.975 0,6.482 1.119,12.14 3.359,16.972 2.239,4.892 5.304,8.959 9.193,12.2 3.891,3.241 8.488,5.686 13.792,7.337 5.304,1.648 10.99,2.475 17.061,2.475 2.71,0 5.362,-0.177 7.956,-0.529 2.534,-0.354 4.936,-0.827 7.204,-1.416 2.268,-0.589 4.346,-1.298 6.232,-2.121 1.886,-0.826 3.506,-1.739 4.862,-2.74 V 36.862 h -2.21 c -3.181,2.711 -6.836,4.67 -10.96,5.88 -4.126,1.207 -7.427,1.811 -9.902,1.811 -2.947,0 -5.776,-0.354 -8.486,-1.062 -2.712,-0.705 -5.113,-1.916 -7.205,-3.623 -2.092,-1.711 -3.787,-4.009 -5.083,-6.896 -1.238,-2.948 -1.857,-6.631 -1.857,-11.05 m -95.031,4.598 c 1.12,0 2.019,0.295 2.697,0.884 0.677,0.588 1.576,1.796 2.696,3.623 1.355,2.948 3.492,5.496 6.409,7.648 2.918,2.151 6.527,3.226 10.829,3.226 2.476,0 4.832,-0.501 7.073,-1.504 2.238,-0.943 4.213,-2.225 5.923,-3.845 1.708,-1.621 3.063,-3.55 4.066,-5.79 1.001,-2.181 1.502,-4.508 1.502,-6.983 0,-2.475 -0.472,-4.833 -1.413,-7.073 -1.004,-2.18 -2.33,-4.096 -3.978,-5.746 -1.652,-1.649 -3.625,-2.946 -5.924,-3.889 -2.24,-0.943 -4.656,-1.415 -7.249,-1.415 -4.302,0 -7.853,1.076 -10.652,3.226 -2.8,2.151 -4.994,4.7 -6.586,7.649 -1.12,1.826 -1.96,3.107 -2.519,3.845 -0.561,0.736 -1.518,1.105 -2.874,1.105 h -3.182 c -0.472,0 -0.883,-0.105 -1.237,-0.31 -0.353,-0.208 -0.531,-0.546 -0.531,-1.017 v -7.69 c 0,-2.948 0.677,-5.835 2.034,-8.664 1.414,-2.829 3.122,-5.347 5.127,-7.557 2.002,-2.21 4.124,-3.994 6.365,-5.349 2.238,-1.297 4.213,-1.946 5.923,-1.946 v -4.595 h -43.935 v 4.595 c 1.708,0 3.682,0.649 5.922,1.946 2.24,1.355 4.36,3.139 6.365,5.349 2.003,2.21 3.713,4.728 5.128,7.557 1.355,2.829 2.032,5.716 2.032,8.664 v 7.69 c 0,0.235 -0.192,0.514 -0.574,0.84 -0.384,0.323 -0.782,0.487 -1.194,0.487 h -3.182 c -1.357,0 -2.314,-0.325 -2.873,-0.973 -0.561,-0.649 -1.429,-1.976 -2.608,-3.977 -1.356,-2.949 -3.418,-5.498 -6.187,-7.649 -2.772,-2.15 -6.425,-3.226 -10.963,-3.226 -2.475,0 -4.833,0.472 -7.071,1.415 -2.241,0.943 -4.215,2.24 -5.923,3.889 -1.71,1.65 -3.066,3.566 -4.067,5.746 -1.002,2.24 -1.503,4.598 -1.503,7.073 0,2.475 0.501,4.832 1.503,7.072 1.001,2.239 2.357,4.212 4.067,5.923 1.708,1.707 3.682,3.064 5.923,4.067 2.238,1 4.596,1.502 7.071,1.502 4.538,0 8.222,-1.018 11.05,-3.049 2.829,-2.035 5.04,-4.641 6.63,-7.824 1.119,-1.828 1.959,-3.109 2.52,-3.847 0.559,-0.738 1.517,-1.103 2.873,-1.103 h 2.74 c 0.412,0 0.81,0.175 1.194,0.529 0.382,0.355 0.574,0.765 0.574,1.238 v 2.74 c 0,1.356 -0.397,2.372 -1.193,3.05 -0.795,0.677 -2.196,1.46 -4.199,2.343 -3.419,1.592 -6.307,3.875 -8.663,6.851 -2.358,2.974 -3.536,6.732 -3.536,11.271 0,2.593 0.5,5.04 1.503,7.338 1.06,2.298 2.504,4.316 4.331,6.055 1.826,1.737 3.948,3.109 6.365,4.111 2.416,1.001 4.979,1.502 7.691,1.502 2.71,0 5.273,-0.501 7.69,-1.502 2.417,-1.002 4.523,-2.374 6.321,-4.111 1.798,-1.739 3.227,-3.757 4.287,-6.055 1.062,-2.298 1.592,-4.745 1.592,-7.338 0,-4.539 -1.105,-8.297 -3.315,-11.271 -2.21,-2.976 -5.025,-5.259 -8.442,-6.851 -2.064,-0.883 -3.479,-1.666 -4.244,-2.343 -0.766,-0.678 -1.149,-1.694 -1.149,-3.05 v -2.74 c 0,-0.473 0.178,-0.883 0.531,-1.238 0.354,-0.354 0.765,-0.529 1.237,-0.529 z"
             style="fill:#ffffff;fill-opacity:1;fill-rule:nonzero;stroke:none"
             id="path20" />
        </g>
      </g>
    </g>
  </g>
</svg>
